<svg xmlns="http://www.w3.org/2000/svg" viewBox="0 0 64 64" aria-hidden="true">
  <defs>
    <linearGradient id="bottle" x1="0%" y1="0%" x2="100%" y2="100%">
      <stop offset="0%" stop-color="#f0d080"/>
      <stop offset="45%" stop-color="#c89b3c"/>
      <stop offset="100%" stop-color="#8a5a12"/>
    </linearGradient>
    <linearGradient id="liquid" x1="0%" y1="0%" x2="0%" y2="100%">
      <stop offset="0%" stop-color="#e8c06a"/>
      <stop offset="100%" stop-color="#9a6b1f"/>
    </linearGradient>
  </defs>
  <rect x="24" y="6" width="16" height="8" rx="2" fill="url(#bottle)"/>
  <path d="M22 14h20l-2 8H24l-2-8z" fill="url(#bottle)"/>
  <path d="M20 22h24c0 0-2 4-2 30 0 4-3 6-10 6s-10-2-10-6c0-26-2-30-2-30z" fill="url(#liquid)" stroke="#f5e6b8" stroke-width="1.2"/>
  <path d="M24 30h16v18c0 2-2 4-8 4s-8-2-8-4V30z" fill="rgba(255,255,255,0.12)"/>
  <ellipse cx="32" cy="54" rx="10" ry="2.5" fill="rgba(0,0,0,0.25)"/>
</svg>
